<?xml version="1.0" encoding="utf-8"?>
<!-- Generator: Adobe Illustrator 23.0.1, SVG Export Plug-In . SVG Version: 6.00 Build 0)  -->
<svg version="1.1" id="Camada_1" xmlns="http://www.w3.org/2000/svg" xmlns:xlink="http://www.w3.org/1999/xlink" x="0px" y="0px"
	 viewBox="0 0 200 130" style="enable-background:new 0 0 200 130;" xml:space="preserve">
<style type="text/css">
	.st0{fill:#C49F05;}
	.st1{fill:#FCCB00;}
	.st2{fill:#FFDC48;}
	.st3{fill:#00BA3E;}
	.st4{fill:#014C26;}
	.st5{fill:none;stroke:#29ABE2;stroke-width:2.8403;stroke-linecap:round;stroke-linejoin:round;stroke-miterlimit:10;}
	.st6{opacity:0.22;fill:#FFFF00;}
	.st7{fill:#0071BC;}
	.st8{fill:#06D9EF;}
	.st9{fill:none;stroke:#29ABE2;stroke-width:1.0863;stroke-linecap:round;stroke-linejoin:round;stroke-miterlimit:10;}
	.st10{fill:none;stroke:#1E97C1;stroke-width:1.0863;stroke-linecap:round;stroke-linejoin:round;stroke-miterlimit:10;}
	.st11{fill:none;stroke:#29ABE2;stroke-width:1.1225;stroke-linecap:round;stroke-linejoin:round;stroke-miterlimit:10;}
	.st12{fill:#038903;}
	.st13{fill:#00A100;}
	.st14{fill:#006837;}
	.st15{fill:none;stroke:#1E97C1;stroke-width:2.8403;stroke-linecap:round;stroke-linejoin:round;stroke-miterlimit:10;}
	.st16{fill:none;stroke:#29ABE2;stroke-width:2.9351;stroke-linecap:round;stroke-linejoin:round;stroke-miterlimit:10;}
</style>
<g>
	<rect x="-0.1" y="0.1" class="st7" width="200.2" height="129.7"/>
	<g>
		<g>
			<path class="st8" d="M99.6,96.4c-23,0-41.8-18.7-41.8-41.8s18.7-41.8,41.8-41.8s41.8,18.7,41.8,41.8S122.6,96.4,99.6,96.4z"/>
		</g>
	</g>
	<g>
		<g>
			<path class="st9" d="M79.6,51c7.2-15.8,34-15.2,41.2,0.3"/>
		</g>
		<g>
			<g>
				<path class="st9" d="M80.7,45.7c4.3-6.1,11.6-8.7,19.3-8.7"/>
			</g>
			<g>
				<path class="st9" d="M119.2,45.7c-4.3-6.1-11.6-8.7-19.3-8.7"/>
			</g>
		</g>
		<g>
			<g>
				<path class="st10" d="M0.1,37.6H20c1,0,2-0.4,2.7-1.1l2-2c0.7-0.7,1.7-1.1,2.7-1.1h27.4c0.3,0,0.6,0,0.9,0.1"/>
				<path class="st9" d="M61.1,38l2.8,2.8c0.7,0.7,1.7,1.1,2.7,1.1H80c1,0,2-0.4,2.7-1.1c4.4-4.4,10.7-6.4,17.3-6.4"/>
			</g>
			<g>
				<path class="st9" d="M118.2,41.9c-4.4-5.2-11.2-7.4-18.3-7.4"/>
			</g>
		</g>
		<g>
			<g>
				<path class="st9" d="M82.8,38.3C87.2,33.9,93.5,32,100,32"/>
			</g>
			<g>
				<polyline class="st10" points="145.3,38 153.1,30.2 199.3,30.2 				"/>
				<path class="st9" d="M100,32c6.5,0,12.8,1.9,17.1,6.2h21"/>
			</g>
		</g>
		<g>
			<g>
				<path class="st9" d="M85.1,34.1c4.1-3,9.5-4.3,14.9-4.3"/>
			</g>
			<g>
				<path class="st9" d="M114.8,34.1c-4.1-3-9.5-4.3-14.9-4.3"/>
			</g>
		</g>
		<g>
			<g>
				<path class="st9" d="M80.7,65.4c4.3,6.1,11.6,8.7,19.3,8.7"/>
			</g>
			<g>
				<path class="st9" d="M118.7,65.7c-4.3,6.1-11.1,8.5-18.8,8.5"/>
			</g>
		</g>
		<g>
			<g>
				<path class="st9" d="M81.7,69.2c4.4,5.2,11.2,7.4,18.3,7.4"/>
			</g>
			<g>
				<path class="st9" d="M118.2,69.2c-4.4,5.2-11.2,7.4-18.3,7.4"/>
			</g>
		</g>
		<g>
			<g>
				<polyline class="st10" points="0.1,90.7 12.2,90.7 19.7,83.2 30.1,83.2 56.9,83.2 59.1,81 				"/>
				<path class="st9" d="M64,76.1l3.3-3.3h15.6c4.4,4.3,10.7,6.2,17.1,6.2"/>
			</g>
			<g>
				<path class="st9" d="M117.1,72.9c-4.4,4.3-10.7,6.2-17.1,6.2"/>
			</g>
		</g>
		<g>
			<g>
				<path class="st9" d="M100,81.3c-5.4,0-10.7-1.3-14.9-4.3"/>
			</g>
			<g>
				<polyline class="st10" points="140.2,80.8 148.8,89.4 200.1,89.4 				"/>
				<path class="st9" d="M100,81.3c5.4,0,10.7-1.3,14.9-4.3h19.7"/>
			</g>
		</g>
		<g>
			<g>
				<path class="st9" d="M0.1,14.4h57c1.5,0,3,0.6,4.1,1.7l4,4"/>
				<path class="st9" d="M69.9,24.9l3.8,3.8c1.1,1.1,2.5,1.7,4.1,1.7h8.7c0.8,0,1.6-0.2,2.3-0.5c3.4-1.5,7.2-2.2,11.1-2.2"/>
			</g>
			<g>
				<path class="st9" d="M112.1,30.3c-3.6-1.8-7.9-2.7-12.2-2.7"/>
			</g>
		</g>
		<g>
			<path class="st9" d="M79,54.9c1.7-1,2.4-3,3.8-5s5.2-8.2,17.1-8.2"/>
			<path class="st9" d="M120.9,54.9c-1.7-1-2.4-3-3.8-5c-1.5-2-5.2-8.2-17.1-8.2"/>
		</g>
		<g>
			<g>
				<path class="st9" d="M83.1,64.6c1.7,2.2,5.7,7.2,16.8,7.2"/>
			</g>
			<g>
				<path class="st9" d="M116.8,64.6c-1.7,2.2-5.7,7.2-16.8,7.2"/>
			</g>
		</g>
		<g>
			<g>
				<g>
					<path class="st9" d="M86.3,64.2c2.1,2.8,6.4,5.3,13.7,5.3"/>
				</g>
			</g>
			<g>
				<g>
					<path class="st9" d="M114.6,63.4c-2.4,3-6.7,6-14.7,6"/>
				</g>
			</g>
		</g>
		<g>
			<g>
				<path class="st9" d="M90.4,64.7c1.9,1.7,5.8,2.3,9.5,2.3"/>
			</g>
		</g>
		<g>
			<g>
				<path class="st9" d="M112.7,61.7c-3.3,4.2-8.1,5.2-12.8,5.2"/>
			</g>
		</g>
		<polyline class="st9" points="0.4,58 6.6,64.3 15.7,64.3 35.3,64.3 41.4,58.1 51.2,58.1 		"/>
		<path class="st9" d="M58,58.1h20.8c1.8-0.6,4-3.4,5.9-6.1c4-5.5,7-7.9,15.3-7.9"/>
		<path class="st9" d="M121.2,58.1c-1.8-0.6-4-3.4-5.9-6.1c-4-5.5-7-7.9-15.3-7.9"/>
		<path class="st9" d="M89.8,26.9c2.7-0.8,5.6-1.7,10.3-1.7"/>
		<path class="st9" d="M132.7,18.9l1-1c1.4-1.4,3.4-2.2,5.4-2.2h60.1"/>
		<path class="st9" d="M127.9,23.7l-1,1c-1.4,1.4-3.4,2.2-5.4,2.2h-10.3c-0.7,0-1.5-0.1-2.2-0.3c-2.4-0.7-5-1.3-9.1-1.4
			c-0.1,0-0.1,0-0.2,0"/>
		<path class="st9" d="M79,60.9c8.7-3.6,7.6-14.5,21.1-14.5c4.9,0,8.9,4,8.9,8.9s-4,8.9-8.9,8.9c-8.9,0-11.8-4.2-20.4-1.4"/>
		<path class="st9" d="M120.9,60.9c-5.5-2.3-7.1-7.6-11-11.1"/>
		<path class="st9" d="M85.4,59.5c2.5,0,4.6,0.5,6.7,1.1c2.3,0.6,4.7,1.2,8,1.2c3.7,0,6.6-3,6.6-6.6c0-3.7-3-6.6-6.6-6.6
			c-6.3,0-9.2,3.1-12,6.9c-1,1.3-2,2.7-3.2,4C85,59.5,85.2,59.5,85.4,59.5z"/>
		<path class="st9" d="M100.1,59.6c-3,0-5.2-0.6-7.5-1.2c-1.1-0.3-2.2-0.6-3.3-0.8c0.2-0.3,0.4-0.5,0.6-0.8c2.7-3.7,5.4-6,10.2-6
			c2.4,0,4.4,2,4.4,4.4S102.6,59.6,100.1,59.6z"/>
		<path class="st9" d="M100.1,57.4c-2.7,0-4.7-0.5-6.9-1.1c0,0,0,0-0.1,0c0.8-1,3.2-3.2,6.9-3.2c1.2,0,2.1,1,2.1,2.1
			S101.3,57.4,100.1,57.4z"/>
		<polyline class="st9" points="147.2,63.2 155.4,63.2 165.6,73.4 200,73.4 		"/>
		<path class="st9" d="M109.9,61.2c2.3-2.5,1.6-6.3,1.6-6.3c1.1,1.3,4.1,7.8,9.3,8.4h19.6"/>
	</g>
	<g>
		<path class="st11" d="M99.6,96.1c-23,0-41.8-18.7-41.8-41.8s18.7-41.8,41.8-41.8s41.8,18.7,41.8,41.8S122.6,96.1,99.6,96.1z"/>
	</g>
	<g>
		<path class="st0" d="M99.4,61.3l-22.1,6.6l-1.9,1.5V92c0,0.1,0,0.2,0,0.3c0.5,19.7,21.9,27.1,24,27.1c2.9,0,23.3-7.3,24-26.8
			c0-0.2,0-0.4,0-0.6V69.3l-1.6-1.2L99.4,61.3z"/>
		<path class="st1" d="M99.4,62.6l-24,6.7v24c0,0.1,0,0.2,0,0.3c0.5,19.7,21.9,27.1,24,27.1c2.9,0,23.3-7.3,24-26.8
			c0-0.2,0-0.4,0-0.6v-24L99.4,62.6z"/>
		<path class="st2" d="M75.4,69.3v24c0,0.1,0,0.2,0,0.3c0.5,19.7,21.9,27.1,24,27.1V62.6L75.4,69.3z"/>
		<path class="st0" d="M99.8,74.8L99.8,74.8c-4,0-7.2,3.2-7.2,7.2v4.5c0,4,3.2,7.2,7.2,7.2h0c4,0,7.2-3.2,7.2-7.2V82
			C107,78.1,103.8,74.8,99.8,74.8z M104.4,85.8c0,2.5-2.1,4.6-4.6,4.6s-4.6-2.1-4.6-4.6v-2.9c0-2.5,2.1-4.6,4.6-4.6s4.6,2.1,4.6,4.6
			V85.8z"/>
		<path class="st12" d="M99.8,74L99.8,74c-4,0-7.2,3.2-7.2,7.2v4.5c0,4,3.2,7.2,7.2,7.2h0c4,0,7.2-3.2,7.2-7.2v-4.5
			C107,77.2,103.8,74,99.8,74z M104.4,84.9c0,2.5-2.1,4.6-4.6,4.6s-4.6-2.1-4.6-4.6V82c0-2.5,2.1-4.6,4.6-4.6s4.6,2.1,4.6,4.6V84.9z
			"/>
		<circle class="st12" cx="99.6" cy="92.9" r="9.5"/>
		<circle class="st0" cx="99.7" cy="93.3" r="9.4"/>
		<path class="st13" d="M106.9,87.3c0.1-0.4,0.1-0.8,0.1-1.2v-4.5c0-4-3.2-7.2-7.2-7.2c-4,0-7.2,3.2-7.2,7.2v4.5
			c0,0.3,0,0.6,0.1,0.9c-1.4,1.6-2.3,3.8-2.3,6.1c0,5.1,4.2,9.3,9.3,9.3c5.1,0,9.3-4.2,9.3-9.3C109,90.9,108.2,88.9,106.9,87.3z
			 M99.8,77.3c3,0,4.6,2.5,4.6,5v2.8c-1.4-0.8-3-1.3-4.8-1.3c-1.6,0-3.1,0.4-4.5,1.1v-2.6C95.2,79.8,96.8,77.3,99.8,77.3z"/>
		<g>
			<path class="st14" d="M101,93.8c0.9-0.4,1.5-1.4,1.5-2.4c0-1.3-1.2-2.5-2.5-2.5c-1.5,0-2.7,1.1-2.7,2.6c0,1,0.6,1.9,1.4,2.3
				c0.1,0.1,0.2,0.2,0.1,0.3l-0.3,0.5l-1.1,2.2c-0.1,0.2,0,0.4,0.2,0.4h2.2h2.2c0.2,0,0.3-0.2,0.2-0.4l-1.1-2.2l-0.3-0.5
				C100.8,94,100.8,93.8,101,93.8z"/>
		</g>
		<g>
			<path class="st4" d="M100.8,93.7c0.8-0.4,1.3-1.2,1.3-2.1c0-1.2-1-2.1-2.2-2.2c-1.3,0-2.3,1-2.3,2.3c0,0.9,0.5,1.6,1.2,2
				c0.1,0.1,0.2,0.2,0.1,0.3l-0.2,0.5l-1,1.9c-0.1,0.1,0,0.3,0.2,0.3h1.9h1.9c0.2,0,0.3-0.2,0.2-0.3l-1-1.9l-0.2-0.4
				C100.7,93.9,100.7,93.7,100.8,93.7z"/>
		</g>
	</g>
	<polyline class="st9" points="-0.1,113 41.7,113 50,102.8 73,102.8 	"/>
	<polyline class="st9" points="123.4,110.4 150,110.4 159.1,117.4 199,117.4 	"/>
</g>
</svg>
